<svg xmlns="http://www.w3.org/2000/svg" width="313" height="193" fill="none"><path fill="#C0BCE6" d="M280.251 147.033a9.46 9.46 0 0 1-7.354 1.807l-37.033-6.428 9.614 15.268a9.44 9.44 0 0 1-.913 11.283 10 10 0 0 1-1.347 1.259 9.45 9.45 0 0 1-9.734 1.051l-33.092-15.463-.384 22.269a9.45 9.45 0 0 1-3.708 7.341 9.4 9.4 0 0 1-2.317 1.304 9.44 9.44 0 0 1-10.275-2.317l-20.475-21.659-15.539 25.436a9.5 9.5 0 0 1-2.323 2.582 9.445 9.445 0 0 1-14.941-5.383l-4.992-21.703-29.164 21.986a9.435 9.435 0 0 1-11.314.038 9.45 9.45 0 0 1-3.23-10.848l6.24-16.93-34.893 13.964a9.446 9.446 0 0 1-11.402-3.582 9.44 9.44 0 0 1 1.24-11.887l12.561-12.466-32.582 5.439a9.445 9.445 0 0 1-10.514-6.327 9.44 9.44 0 0 1 4.608-11.371l18.202-9.45-26.128-1.058a9.446 9.446 0 0 1-9.01-8.449 9.46 9.46 0 0 1 3.658-8.493 9.4 9.4 0 0 1 3.4-1.644l25.341-6.453-19.77-5.471A9.44 9.44 0 0 1 5.82 80.51a9.46 9.46 0 0 1 8.972-8.374L47.789 70.7l-14.872-9.589a9.443 9.443 0 0 1-.617-15.438 9.46 9.46 0 0 1 7.354-1.806l37.033 6.428-9.614-15.268a9.44 9.44 0 0 1 .913-11.283 10 10 0 0 1 1.348-1.259 9.45 9.45 0 0 1 9.733-1.051l33.086 15.463.384-22.27A9.445 9.445 0 0 1 128.844 8.3l20.475 21.659 15.538-25.436a9.5 9.5 0 0 1 2.324-2.582 9.445 9.445 0 0 1 14.94 5.383l4.993 21.703L216.277 7.04a9.435 9.435 0 0 1 11.314-.038 9.45 9.45 0 0 1 3.23 10.848l-6.239 16.93 34.892-13.964a9.443 9.443 0 0 1 10.162 15.47l-12.561 12.465 32.582-5.44a9.446 9.446 0 0 1 7.298 16.817 9.5 9.5 0 0 1-1.392.882l-18.202 9.45 26.129 1.058a9.446 9.446 0 0 1 9.009 8.449 9.46 9.46 0 0 1-3.658 8.493 9.4 9.4 0 0 1-3.399 1.644L280.1 96.558l19.77 5.471a9.44 9.44 0 0 1 6.862 10.168 9.44 9.44 0 0 1-3.651 6.441 9.44 9.44 0 0 1-5.321 1.933l-32.997 1.436 14.871 9.589a9.442 9.442 0 0 1 .617 15.437"/><path fill="#7F78C5" d="m243.331 96.186 59.774-15.23-61.632-2.506 49.739-25.826-61.846 10.325 33.615-33.369-54.606 21.86 13.581-36.85-40.786 30.75-8.261-35.895-21.979 35.976-28.962-30.63-.636 36.819-46.276-21.62 20.922 33.23-57.949-10.055L77.84 78.84l-62.645 2.72 54.013 14.953-59.774 15.23 61.638 2.5-49.745 25.833 61.852-10.332-33.62 33.375 54.605-21.86-13.58 36.851 40.791-30.75 8.261 35.888 21.973-35.97 28.962 30.631.636-36.82 46.276 21.621-20.922-33.231 57.949 10.055-39.81-25.675 62.652-2.726z"/><path fill="#000" d="M110.307 136.783c-3.154-1.278-5.918-3.192-8.588-5.679-2.543-2.367-4.923-5.37-6.881-8.436-1.832-2.871-3.488-5.944-4.766-9.281a39 39 0 0 1-2.355-9.853c-.365-3.488-.277-7.02.29-10.426.591-3.564 1.593-6.945 2.82-10.156 1.285-3.368 3.004-6.762 5.03-9.55 2.079-2.86 4.383-5.434 7.071-7.071 2.368-1.442 5.125-2.367 8.034-1.442 2.903.925 5.1 3.205 6.97 5.786 2.443 3.381 4.023 7.757 5.364 12.013 1.687 5.364 2.625 11.188 3.211 16.785.604 5.742.913 11.805.296 17.547-.479 4.433-1.152 9.041-2.89 12.819-1.303 2.839-2.991 5.44-5.641 6.812-2.475 1.278-5.415 1.152-7.946.132zm-11.843-34.376a109 109 0 0 0 2.752 10.282c.976 3.028 2.096 6.069 3.469 8.833 1.127 2.273 2.361 4.571 3.897 6.548 1.341 1.725 2.676 2.82 4.004 3.16 1.241.315 2.254-.144 3.023-1.429.768-1.284 1.271-3.293 1.485-5.994.265-3.318.07-6.68-.195-9.998-.352-4.382-1.076-8.852-1.914-13.133-.806-4.124-1.794-8.355-3.06-12.34-.976-3.08-2.071-6.183-3.557-9.023-1.215-2.336-2.481-3.954-3.759-4.873-1.278-.92-2.499-1.014-3.664-.371-1.127.617-2.034 1.825-2.732 3.532-.7 1.706-1.153 3.796-1.392 6.227-.27 2.745-.151 5.559.05 8.291.252 3.425.882 6.951 1.593 10.288m29.151-21.766c-.346-3.166-.705-6.333-1.221-9.469q-.614-3.704-1.152-6.075-.539-2.368-1.001-3.69c-.309-.881-.517-1.668-.687-2.222-.094-.315-.195-.636-.226-.907l-.013-.139q-.056-.537.315-.68c3.639-1.29 7.297-2.43 11.012-3.43q.444-.117.887.364.446.481.674 1.455c5.824 20.304 11.528 40.653 17.213 61.008.151.58.296.863.454.85q.226-.017.264-.913c1.625-22.118 3.205-44.242 4.873-66.354a143 143 0 0 1 12.517.183c.264.019.415.22.453.592l.013.138c.031.284 0 .63-.025.982-.051.611-.082 1.474-.202 2.456-.113.982-.182 2.323-.195 4.023-.019 1.7.031 3.86.157 6.466.158 3.306.479 6.61.812 9.91 1.348 12.831 2.689 25.663 4.036 38.488.359 3.293.731 6.592 1.259 9.859.422 2.582.819 4.697 1.19 6.359q.556 2.495 1.027 3.891c.314.938.529 1.77.705 2.361.101.34.201.674.233.957l.012.139q.057.568-.321.674a142 142 0 0 1-13.757 3.028c-.258.038-.409-.132-.447-.529l-.012-.145c-.032-.296 0-.661.019-1.045.044-.655.075-1.58.182-2.638s.164-2.487.177-4.275c.006-1.788-.051-4.042-.183-6.749-.17-3.406-.504-6.813-.844-10.219l-3.551-33.847q-.104-1.021-.245-1.09c-.088-.044-.145.284-.158.976-1.435 19.468-2.827 38.948-4.256 58.415-.012.693-.145 1.247-.384 1.662-.239.416-.516.63-.818.649-1.977.132-3.967.207-5.95.226-.309 0-.611-.188-.913-.573q-.455-.578-.692-1.599c-4.993-17.874-10.018-35.736-15.155-53.554q-.237-.965-.321-.881c-.057.056-.057.415.012 1.07l3.23 30.8c.359 3.268.724 6.535 1.253 9.778.422 2.581.819 4.728 1.196 6.428.372 1.7.725 3.054 1.046 4.055s.541 1.882.717 2.506c.107.371.208.717.233 1.001l.013.145c.038.377-.069.56-.334.541a116 116 0 0 1-8.336-.894q-.396-.058-.453-.598l-.013-.139c-.031-.27 0-.598.032-.931.05-.573.088-1.392.208-2.317q.177-1.387.214-3.822c.025-1.618-.019-3.683-.133-6.183-.144-3.173-.453-6.346-.774-9.519-1.291-12.341-2.588-24.68-3.878-37.021zm66.971-27.174c3.066.92 6.114 2.871 8.298 5.66 1.694 2.166 3.218 4.873 3.545 7.858.271 2.468.019 4.382-.718 5.799-.736 1.416-1.75 2.096-3.053 1.957q-1.011-.102-2.021-.78-1.01-.68-1.795-1.876c-.522-.8-.931-1.77-1.215-2.91-.289-1.139-.377-2.417-.27-3.802.302-1.895.125-3.406-.548-4.609-.674-1.202-1.549-1.945-2.626-2.184-1.253-.284-2.386.207-3.393 1.517-1.008 1.316-1.801 3.293-2.349 5.925-.642 3.11-.869 6.421-.818 9.62.069 4.092.485 8.197 1.152 12.24.831 5.011 1.851 10.205 3.431 14.997 1.046 3.173 2.198 6.384 3.872 9.217 1.297 2.191 2.594 3.62 3.847 4.319s2.399.812 3.45.39c1.165-.466 2.135-1.467 2.922-2.927.781-1.461 1.278-3.255 1.347-5.251.088-2.43.132-5.068-.598-7.505q-.861-2.86-2.166-4.653c-.875-1.196-1.788-2.16-2.739-2.864a44 44 0 0 1-2.191-1.72q-.347-.32-.478-1.284-.133-.954.365-1 6.969-.56 13.946-1.071c.283-.019.535.107.768.384.233.27.346.636.359 1.083.113 4.91-.113 9.922-.863 14.689-.642 4.092-1.561 8.285-2.915 12.038-1.158 3.217-2.518 6.529-4.42 9.116-1.517 2.065-3.311 4.326-5.49 5.245-2.493 1.051-4.281 1.139-6.825.208-2.669-.976-4.835-3.702-6.68-6.353-2.537-3.646-4.193-8.323-5.609-12.737-1.864-5.818-2.89-12.095-3.533-18.202-.635-6.032-.862-12.252-.396-18.328.359-4.646 1.108-9.633 2.814-13.643 1.31-3.079 2.953-5.95 5.629-7.675 2.405-1.549 5.288-1.706 7.983-.9zm19.663 9.646c-.044-.428.012-.743.176-.932s.365-.22.623-.1a200 200 0 0 1 6.341 3.198q.999.538 1.12 1.756c.894 10.238 1.795 20.481 2.695 30.719.088.818-.17 1.353-.774 1.593a167 167 0 0 1-4.748 1.807q-.926.341-1.076-1.121a66378 66378 0 0 1-4.351-36.92zm5.521 49.777c-.163-1.587.026-3.123.573-4.553.548-1.429 1.323-2.354 2.298-2.864s1.851-.454 2.613.1c.762.555 1.209 1.442 1.348 2.764.138 1.323-.07 2.67-.63 4.112-.554 1.442-1.303 2.6-2.248 3.368-.95.775-1.8.901-2.562.34-.756-.566-1.228-1.681-1.392-3.267"/></svg>